<svg xmlns="http://www.w3.org/2000/svg" width="160" height="160" viewBox="0 0 160 160">
    <g fill="none" fill-rule="evenodd">
        <rect width="160" height="160" fill="#CCC" fill-opacity=".2" rx="4"/>
        <path fill="#FFF" fill-opacity=".5" fill-rule="nonzero" d="M88.8 95H66.825l-2.95 26.217a1 1 0 0 1-1.105.882l-1.987-.223a1 1 0 0 1-.882-1.106L62.8 95H43a1 1 0 0 1-1-1v-2a1 1 0 0 1 1-1h20.25l2.475-22H43a1 1 0 0 1-1-1v-2a1 1 0 0 1 1-1h23.175l2.95-26.217a1 1 0 0 1 1.105-.882l1.987.223a1 1 0 0 1 .882 1.106L70.2 65h21.975l2.95-26.217a1 1 0 0 1 1.105-.882l1.987.223a1 1 0 0 1 .882 1.106L96.2 65H116a1 1 0 0 1 1 1v2a1 1 0 0 1-1 1H95.75l-2.475 22H116a1 1 0 0 1 1 1v2a1 1 0 0 1-1 1H92.825l-2.95 26.217a1 1 0 0 1-1.105.882l-1.987-.223a1 1 0 0 1-.882-1.106L88.8 95zm.45-4l2.475-22H69.75l-2.475 22H89.25z"/>
    </g>
</svg>
